<svg width="314" height="66" viewBox="0 0 314 66" fill="none" xmlns="http://www.w3.org/2000/svg">
<rect width="308" height="61" rx="5" fill="#ABD1DE"/>
<path d="M63.9245 36.52C64.0445 36.62 64.1045 36.72 64.1045 36.82C64.1045 36.9 64.0545 37.02 63.9545 37.18C63.8745 37.32 63.6845 37.54 63.3845 37.84C63.1045 38.14 62.7045 38.48 62.1845 38.86C61.6845 39.24 61.0245 39.56 60.2045 39.82C59.4045 40.08 58.5445 40.21 57.6245 40.21C55.5245 40.21 53.7645 39.52 52.3445 38.14C50.9445 36.76 50.2445 34.91 50.2445 32.59C50.2445 30.25 50.9445 28.41 52.3445 27.07C53.7645 25.71 55.4945 25.03 57.5345 25.03C59.5745 25.03 61.1145 25.77 62.1545 27.25H62.1845L62.1545 25.6C62.1545 25.34 62.2845 25.21 62.5445 25.21H63.6845C63.9245 25.21 64.0445 25.34 64.0445 25.6V30.7C64.0445 30.94 63.9245 31.06 63.6845 31.06H62.3045C62.0645 31.06 61.9445 30.94 61.9445 30.7V30.19C61.9245 29.47 61.5145 28.78 60.7145 28.12C59.9145 27.46 58.8945 27.13 57.6545 27.13C56.4345 27.13 55.3145 27.62 54.2945 28.6C53.2745 29.58 52.7645 30.92 52.7645 32.62C52.7645 34.3 53.2645 35.64 54.2645 36.64C55.2645 37.62 56.3845 38.11 57.6245 38.11C58.8645 38.11 59.9145 37.85 60.7745 37.33C61.6545 36.79 62.2445 36.27 62.5445 35.77C62.6845 35.53 62.8545 35.5 63.0545 35.68L63.9245 36.52ZM72.5364 40H66.8064C66.5464 40 66.4164 39.88 66.4164 39.64V38.35C66.4164 38.11 66.5464 37.99 66.8064 37.99H68.4564V27.25H66.8064C66.5464 27.25 66.4164 27.13 66.4164 26.89V25.6C66.4164 25.36 66.5464 25.24 66.8064 25.24H70.3164C70.5764 25.24 70.7064 25.36 70.7064 25.6V29.35H70.7964C70.8564 29.03 71.0664 28.59 71.4264 28.03C71.7864 27.47 72.1764 27.01 72.5964 26.65C73.0364 26.27 73.6564 25.93 74.4564 25.63C75.2764 25.33 76.1964 25.18 77.2164 25.18C77.4764 25.18 77.6064 25.31 77.6064 25.57V27.16C77.6064 27.42 77.4764 27.55 77.2164 27.55H76.5864C74.8664 27.55 73.4964 28.1 72.4764 29.2C71.4564 30.3 70.9464 31.55 70.9464 32.95V37.99H72.5364C72.7964 37.99 72.9264 38.11 72.9264 38.35V39.64C72.9264 39.88 72.7964 40 72.5364 40ZM91.9246 32.92H81.1246C81.2046 34.58 81.7246 35.86 82.6846 36.76C83.6646 37.66 84.7646 38.11 85.9846 38.11C87.2046 38.11 88.2446 37.85 89.1046 37.33C89.9846 36.81 90.5746 36.3 90.8746 35.8C91.0346 35.6 91.2146 35.57 91.4146 35.71L92.2246 36.52C92.3446 36.64 92.4046 36.75 92.4046 36.85C92.4046 36.93 92.3546 37.04 92.2546 37.18C92.1746 37.32 91.9946 37.54 91.7146 37.84C91.4346 38.14 91.0346 38.48 90.5146 38.86C90.0146 39.24 89.3546 39.56 88.5346 39.82C87.7346 40.08 86.8746 40.21 85.9546 40.21C83.8546 40.21 82.0946 39.52 80.6746 38.14C79.2746 36.76 78.5746 34.91 78.5746 32.59C78.5746 30.25 79.2746 28.41 80.6746 27.07C82.0746 25.71 83.7846 25.03 85.8046 25.03C87.8446 25.03 89.4446 25.69 90.6046 27.01C91.7646 28.31 92.3446 30.07 92.3446 32.29C92.3446 32.37 92.3446 32.45 92.3446 32.53C92.3446 32.79 92.2046 32.92 91.9246 32.92ZM89.8546 31.09C89.7946 29.85 89.4046 28.86 88.6846 28.12C87.9646 27.38 87.0046 27.01 85.8046 27.01C84.6046 27.01 83.5746 27.35 82.7146 28.03C81.8546 28.71 81.3446 29.73 81.1846 31.09H89.8546ZM109.418 40H106.808C105.948 40 105.518 39.58 105.518 38.74V37.21H105.458C103.998 39.23 102.048 40.24 99.6079 40.24C98.1679 40.24 96.9879 39.87 96.0679 39.13C95.1479 38.37 94.6879 37.35 94.6879 36.07C94.6879 34.43 95.3979 33.23 96.8179 32.47C98.2579 31.69 100.228 31.3 102.728 31.3H105.248V30.94C105.248 28.44 103.948 27.19 101.348 27.19C100.128 27.19 99.2479 27.31 98.7079 27.55C98.1679 27.77 97.7779 27.95 97.5379 28.09C97.3179 28.23 97.1479 28.34 97.0279 28.42C96.7279 28.66 96.5079 28.68 96.3679 28.48L95.5279 27.43C95.3879 27.27 95.4079 27.11 95.5879 26.95C95.9279 26.51 96.6279 26.08 97.6879 25.66C98.7479 25.24 99.9979 25.03 101.438 25.03C105.638 25.03 107.738 27.03 107.738 31.03V37.99H109.418C109.658 37.99 109.778 38.11 109.778 38.35V39.64C109.778 39.88 109.658 40 109.418 40ZM105.248 33.1H102.878C101.718 33.1 100.758 33.16 99.9979 33.28C99.2379 33.4 98.5879 33.66 98.0479 34.06C97.5279 34.46 97.2679 35.01 97.2679 35.71C97.2679 36.41 97.5479 36.99 98.1079 37.45C98.6879 37.89 99.4379 38.11 100.358 38.11C102.298 38.11 103.928 37.25 105.248 35.53V33.1ZM121.231 38.47C121.311 38.55 121.351 38.64 121.351 38.74C121.351 38.82 121.291 38.92 121.171 39.04C120.291 39.82 119.181 40.21 117.841 40.21C116.521 40.21 115.431 39.78 114.571 38.92C113.731 38.04 113.311 36.77 113.311 35.11V27.25H111.631C111.351 27.25 111.211 27.12 111.211 26.86V25.63C111.211 25.37 111.351 25.24 111.631 25.24H113.311V22.21C113.311 21.93 113.451 21.79 113.731 21.79H115.411C115.671 21.79 115.801 21.93 115.801 22.21V25.24H119.611C119.891 25.24 120.031 25.37 120.031 25.63V26.86C120.031 27.12 119.891 27.25 119.611 27.25H115.801V35.05C115.801 36.05 116.021 36.81 116.461 37.33C116.921 37.83 117.521 38.08 118.261 38.08C119.021 38.08 119.591 37.89 119.971 37.51C120.171 37.33 120.351 37.34 120.511 37.54L121.231 38.47ZM135.606 32.92H124.806C124.886 34.58 125.406 35.86 126.366 36.76C127.346 37.66 128.446 38.11 129.666 38.11C130.886 38.11 131.926 37.85 132.786 37.33C133.666 36.81 134.256 36.3 134.556 35.8C134.716 35.6 134.896 35.57 135.096 35.71L135.906 36.52C136.026 36.64 136.086 36.75 136.086 36.85C136.086 36.93 136.036 37.04 135.936 37.18C135.856 37.32 135.676 37.54 135.396 37.84C135.116 38.14 134.716 38.48 134.196 38.86C133.696 39.24 133.036 39.56 132.216 39.82C131.416 40.08 130.556 40.21 129.636 40.21C127.536 40.21 125.776 39.52 124.356 38.14C122.956 36.76 122.256 34.91 122.256 32.59C122.256 30.25 122.956 28.41 124.356 27.07C125.756 25.71 127.466 25.03 129.486 25.03C131.526 25.03 133.126 25.69 134.286 27.01C135.446 28.31 136.026 30.07 136.026 32.29C136.026 32.37 136.026 32.45 136.026 32.53C136.026 32.79 135.886 32.92 135.606 32.92ZM133.536 31.09C133.476 29.85 133.086 28.86 132.366 28.12C131.646 27.38 130.686 27.01 129.486 27.01C128.286 27.01 127.256 27.35 126.396 28.03C125.536 28.71 125.026 29.73 124.866 31.09H133.536ZM162.533 40H159.923C159.063 40 158.633 39.58 158.633 38.74V37.21H158.573C157.113 39.23 155.163 40.24 152.723 40.24C151.283 40.24 150.103 39.87 149.183 39.13C148.263 38.37 147.803 37.35 147.803 36.07C147.803 34.43 148.513 33.23 149.933 32.47C151.373 31.69 153.343 31.3 155.843 31.3H158.363V30.94C158.363 28.44 157.063 27.19 154.463 27.19C153.243 27.19 152.363 27.31 151.823 27.55C151.283 27.77 150.893 27.95 150.653 28.09C150.433 28.23 150.263 28.34 150.143 28.42C149.843 28.66 149.623 28.68 149.483 28.48L148.643 27.43C148.503 27.27 148.523 27.11 148.703 26.95C149.043 26.51 149.743 26.08 150.803 25.66C151.863 25.24 153.113 25.03 154.553 25.03C158.753 25.03 160.853 27.03 160.853 31.03V37.99H162.533C162.773 37.99 162.893 38.11 162.893 38.35V39.64C162.893 39.88 162.773 40 162.533 40ZM158.363 33.1H155.993C154.833 33.1 153.873 33.16 153.113 33.28C152.353 33.4 151.703 33.66 151.163 34.06C150.643 34.46 150.383 35.01 150.383 35.71C150.383 36.41 150.663 36.99 151.223 37.45C151.803 37.89 152.553 38.11 153.473 38.11C155.413 38.11 157.043 37.25 158.363 35.53V33.1ZM178.212 36.52C178.332 36.62 178.392 36.72 178.392 36.82C178.392 36.9 178.342 37.02 178.242 37.18C178.162 37.32 177.972 37.54 177.672 37.84C177.392 38.14 176.992 38.48 176.472 38.86C175.972 39.24 175.312 39.56 174.492 39.82C173.692 40.08 172.832 40.21 171.912 40.21C169.812 40.21 168.052 39.52 166.632 38.14C165.232 36.76 164.532 34.91 164.532 32.59C164.532 30.25 165.232 28.41 166.632 27.07C168.052 25.71 169.782 25.03 171.822 25.03C173.862 25.03 175.402 25.77 176.442 27.25H176.472L176.442 25.6C176.442 25.34 176.572 25.21 176.832 25.21H177.972C178.212 25.21 178.332 25.34 178.332 25.6V30.7C178.332 30.94 178.212 31.06 177.972 31.06H176.592C176.352 31.06 176.232 30.94 176.232 30.7V30.19C176.212 29.47 175.802 28.78 175.002 28.12C174.202 27.46 173.182 27.13 171.942 27.13C170.722 27.13 169.602 27.62 168.582 28.6C167.562 29.58 167.052 30.92 167.052 32.62C167.052 34.3 167.552 35.64 168.552 36.64C169.552 37.62 170.672 38.11 171.912 38.11C173.152 38.11 174.202 37.85 175.062 37.33C175.942 36.79 176.532 36.27 176.832 35.77C176.972 35.53 177.142 35.5 177.342 35.68L178.212 36.52ZM194.383 36.52C194.503 36.62 194.563 36.72 194.563 36.82C194.563 36.9 194.513 37.02 194.413 37.18C194.333 37.32 194.143 37.54 193.843 37.84C193.563 38.14 193.163 38.48 192.643 38.86C192.143 39.24 191.483 39.56 190.663 39.82C189.863 40.08 189.003 40.21 188.083 40.21C185.983 40.21 184.223 39.52 182.803 38.14C181.403 36.76 180.703 34.91 180.703 32.59C180.703 30.25 181.403 28.41 182.803 27.07C184.223 25.71 185.953 25.03 187.993 25.03C190.033 25.03 191.573 25.77 192.613 27.25H192.643L192.613 25.6C192.613 25.34 192.743 25.21 193.003 25.21H194.143C194.383 25.21 194.503 25.34 194.503 25.6V30.7C194.503 30.94 194.383 31.06 194.143 31.06H192.763C192.523 31.06 192.403 30.94 192.403 30.7V30.19C192.383 29.47 191.973 28.78 191.173 28.12C190.373 27.46 189.353 27.13 188.113 27.13C186.893 27.13 185.773 27.62 184.753 28.6C183.733 29.58 183.223 30.92 183.223 32.62C183.223 34.3 183.723 35.64 184.723 36.64C185.723 37.62 186.843 38.11 188.083 38.11C189.323 38.11 190.373 37.85 191.233 37.33C192.113 36.79 192.703 36.27 193.003 35.77C193.143 35.53 193.313 35.5 193.513 35.68L194.383 36.52ZM209.715 38.11C208.315 39.51 206.525 40.21 204.345 40.21C202.165 40.21 200.375 39.52 198.975 38.14C197.575 36.74 196.875 34.89 196.875 32.59C196.875 30.27 197.585 28.43 199.005 27.07C200.425 25.71 202.205 25.03 204.345 25.03C206.505 25.03 208.285 25.72 209.685 27.1C211.105 28.46 211.815 30.29 211.815 32.59C211.815 34.87 211.115 36.71 209.715 38.11ZM199.395 32.59C199.395 34.23 199.875 35.56 200.835 36.58C201.795 37.6 202.965 38.11 204.345 38.11C205.745 38.11 206.925 37.6 207.885 36.58C208.845 35.56 209.325 34.23 209.325 32.59C209.325 30.95 208.835 29.63 207.855 28.63C206.895 27.63 205.735 27.13 204.375 27.13C203.015 27.13 201.845 27.63 200.865 28.63C199.885 29.63 199.395 30.95 199.395 32.59ZM229.174 40H226.564C225.704 40 225.274 39.58 225.274 38.74V37.63H225.184C224.364 39.35 222.804 40.21 220.504 40.21C218.904 40.21 217.634 39.74 216.694 38.8C215.774 37.84 215.304 36.57 215.284 34.99V27.25H213.574C213.334 27.25 213.214 27.13 213.214 26.89V25.6C213.214 25.36 213.334 25.24 213.574 25.24H216.454C217.314 25.24 217.744 25.66 217.744 26.5V34.39C217.744 35.55 218.024 36.45 218.584 37.09C219.144 37.73 219.964 38.05 221.044 38.05C222.504 38.05 223.654 37.51 224.494 36.43C224.854 35.97 225.034 35.66 225.034 35.5V27.25H223.414C223.174 27.25 223.054 27.13 223.054 26.89V25.6C223.054 25.36 223.174 25.24 223.414 25.24H227.134C227.374 25.24 227.494 25.36 227.494 25.6V37.99H229.174C229.434 37.99 229.564 38.11 229.564 38.35V39.64C229.564 39.88 229.434 40 229.174 40ZM247.728 40H244.878C244.018 40 243.588 39.58 243.588 38.74V30.85C243.588 29.69 243.308 28.79 242.748 28.15C242.188 27.51 241.368 27.19 240.288 27.19C238.748 27.19 237.548 27.82 236.688 29.08C236.588 29.2 236.458 29.42 236.298 29.74V37.99H237.888C238.148 37.99 238.278 38.11 238.278 38.35V39.64C238.278 39.88 238.148 40 237.888 40H232.158C231.898 40 231.768 39.88 231.768 39.64V38.35C231.768 38.11 231.898 37.99 232.158 37.99H233.808V27.25H232.158C231.898 27.25 231.768 27.13 231.768 26.89V25.6C231.768 25.36 231.898 25.24 232.158 25.24H235.668C235.928 25.24 236.058 25.36 236.058 25.6L235.998 27.64H236.088C237.128 25.9 238.738 25.03 240.918 25.03C242.518 25.03 243.768 25.5 244.668 26.44C245.568 27.38 246.028 28.65 246.048 30.25V37.99H247.728C247.988 37.99 248.118 38.11 248.118 38.35V39.64C248.118 39.88 247.988 40 247.728 40ZM259.014 38.47C259.094 38.55 259.134 38.64 259.134 38.74C259.134 38.82 259.074 38.92 258.954 39.04C258.074 39.82 256.964 40.21 255.624 40.21C254.304 40.21 253.214 39.78 252.354 38.92C251.514 38.04 251.094 36.77 251.094 35.11V27.25H249.414C249.134 27.25 248.994 27.12 248.994 26.86V25.63C248.994 25.37 249.134 25.24 249.414 25.24H251.094V22.21C251.094 21.93 251.234 21.79 251.514 21.79H253.194C253.454 21.79 253.584 21.93 253.584 22.21V25.24H257.394C257.674 25.24 257.814 25.37 257.814 25.63V26.86C257.814 27.12 257.674 27.25 257.394 27.25H253.584V35.05C253.584 36.05 253.804 36.81 254.244 37.33C254.704 37.83 255.304 38.08 256.044 38.08C256.804 38.08 257.374 37.89 257.754 37.51C257.954 37.33 258.134 37.34 258.294 37.54L259.014 38.47Z" fill="#688498"/>
<rect x="7.5" y="6.5" width="305" height="58" rx="3.5" stroke="#688498" stroke-width="3"/>
</svg>
