<svg width="1210" height="503" viewBox="0 0 1210 503" fill="none" xmlns="http://www.w3.org/2000/svg">
<rect width="156.291" height="493" rx="7" fill="#DAEBED"/>
<rect x="173.951" width="156.291" height="493" rx="7" fill="#DAEBED"/>
<rect x="347.903" width="156.291" height="493" rx="7" fill="#DAEBED"/>
<rect x="695.806" width="156.291" height="493" rx="7" fill="#DAEBED"/>
<rect x="869.757" width="156.291" height="493" rx="7" fill="#DAEBED"/>
<rect x="1043.71" width="156.291" height="493" rx="7" fill="#DAEBED"/>
<rect x="521.854" width="156.291" height="493" rx="7" fill="#DAEBED"/>
<rect x="11.5" y="11.5" width="153.291" height="490" rx="5.5" stroke="#A7BCD6" stroke-width="3"/>
<rect x="185.451" y="11.5" width="153.291" height="490" rx="5.5" stroke="#A7BCD6" stroke-width="3"/>
<rect x="359.403" y="11.5" width="153.291" height="490" rx="5.5" stroke="#A7BCD6" stroke-width="3"/>
<rect x="707.306" y="11.5" width="153.291" height="490" rx="5.5" stroke="#A7BCD6" stroke-width="3"/>
<rect x="881.257" y="11.5" width="153.291" height="490" rx="5.5" stroke="#A7BCD6" stroke-width="3"/>
<rect x="1055.21" y="11.5" width="153.291" height="490" rx="5.5" stroke="#A7BCD6" stroke-width="3"/>
<rect x="533.354" y="11.5" width="153.291" height="490" rx="5.5" stroke="#A7BCD6" stroke-width="3"/>
</svg>
