<svg width="1107" height="51" viewBox="0 0 1107 51" fill="none" xmlns="http://www.w3.org/2000/svg">
<path d="M201.2 40H197.4C196.787 40 196.333 39.88 196.04 39.64C195.773 39.3733 195.64 38.9333 195.64 38.32V27.8C195.64 26.2533 195.267 25.0533 194.52 24.2C193.8 23.3467 192.72 22.92 191.28 22.92C189.173 22.92 187.52 23.84 186.32 25.68C186.48 26.16 186.56 26.6933 186.56 27.28V37.32H188.8C189.12 37.32 189.28 37.48 189.28 37.8V39.52C189.28 39.84 189.12 40 188.8 40H181.16C180.813 40 180.64 39.84 180.64 39.52V37.8C180.64 37.48 180.813 37.32 181.16 37.32H183.28V27.8C183.28 26.2533 182.907 25.0533 182.16 24.2C181.413 23.3467 180.32 22.92 178.88 22.92C177.787 22.92 176.947 23.0933 176.36 23.44C175.8 23.76 175.373 24.0533 175.08 24.32C174.787 24.56 174.547 24.8 174.36 25.04C174.04 25.4667 173.773 25.9067 173.56 26.36V37.32H175.52C175.84 37.32 176 37.48 176 37.8V39.52C176 39.84 175.84 40 175.52 40H168.04C167.693 40 167.52 39.84 167.52 39.52V37.8C167.52 37.48 167.693 37.32 168.04 37.32H170.24V23H168.04C167.693 23 167.52 22.84 167.52 22.52V20.8C167.52 20.48 167.693 20.32 168.04 20.32H171.96C172.413 20.32 172.733 20.4133 172.92 20.6C173.133 20.76 173.24 21.0667 173.24 21.52L173.16 23.52H173.28C174.667 21.2 176.813 20.04 179.72 20.04C182.653 20.04 184.653 21.1467 185.72 23.36C187.24 21.1467 189.387 20.04 192.16 20.04C194.293 20.04 195.947 20.6667 197.12 21.92C198.32 23.1733 198.92 24.8667 198.92 27L198.96 37.32H201.2C201.547 37.32 201.72 37.48 201.72 37.8V39.52C201.72 39.84 201.547 40 201.2 40ZM220.812 37.48C218.945 39.3467 216.559 40.28 213.652 40.28C210.745 40.28 208.359 39.36 206.492 37.52C204.625 35.6533 203.692 33.1867 203.692 30.12C203.692 27.0267 204.639 24.5733 206.532 22.76C208.425 20.9467 210.799 20.04 213.652 20.04C216.532 20.04 218.905 20.96 220.772 22.8C222.665 24.6133 223.612 27.0533 223.612 30.12C223.612 33.16 222.679 35.6133 220.812 37.48ZM207.052 30.12C207.052 32.3067 207.692 34.08 208.972 35.44C210.252 36.8 211.812 37.48 213.652 37.48C215.519 37.48 217.092 36.8 218.372 35.44C219.652 34.08 220.292 32.3067 220.292 30.12C220.292 27.9333 219.639 26.1733 218.332 24.84C217.052 23.5067 215.505 22.84 213.692 22.84C211.879 22.84 210.319 23.5067 209.012 24.84C207.705 26.1733 207.052 27.9333 207.052 30.12ZM247.863 40H244.063C242.916 40 242.343 39.44 242.343 38.32V27.8C242.343 26.2533 241.969 25.0533 241.223 24.2C240.476 23.3467 239.383 22.92 237.943 22.92C235.889 22.92 234.289 23.76 233.143 25.44C233.009 25.6 232.836 25.8933 232.623 26.32V37.32H234.743C235.089 37.32 235.263 37.48 235.263 37.8V39.52C235.263 39.84 235.089 40 234.743 40H227.103C226.756 40 226.583 39.84 226.583 39.52V37.8C226.583 37.48 226.756 37.32 227.103 37.32H229.303V23H227.103C226.756 23 226.583 22.84 226.583 22.52V20.8C226.583 20.48 226.756 20.32 227.103 20.32H231.783C232.129 20.32 232.303 20.48 232.303 20.8L232.223 23.52H232.343C233.729 21.2 235.876 20.04 238.783 20.04C240.916 20.04 242.583 20.6667 243.783 21.92C244.983 23.1733 245.596 24.8667 245.622 27V37.32H247.863C248.209 37.32 248.383 37.48 248.383 37.8V39.52C248.383 39.84 248.209 40 247.863 40Z" fill="#425563"/>
<path d="M1059.4 40.28C1057.61 40.28 1056.19 39.9467 1055.12 39.28C1054.05 38.6133 1053.39 37.9867 1053.12 37.4H1053.04C1053.09 38.7067 1053.12 39.4 1053.12 39.48C1053.12 39.8267 1052.93 40 1052.56 40H1051.2C1050.85 40 1050.68 39.8267 1050.68 39.48V33.48C1050.68 33.1333 1050.85 32.96 1051.2 32.96H1052.76C1053.13 32.96 1053.32 33.1333 1053.32 33.48V34.28C1053.59 35.08 1054.15 35.8133 1055 36.48C1056.01 37.28 1057.28 37.68 1058.8 37.68C1061.79 37.68 1063.28 36.64 1063.28 34.56C1063.28 33.84 1062.87 33.2667 1062.04 32.84C1061.21 32.3867 1060.2 32.0133 1059 31.72C1057.83 31.4267 1056.65 31.0933 1055.48 30.72C1054.31 30.3467 1053.31 29.7467 1052.48 28.92C1051.65 28.0667 1051.24 27 1051.24 25.72C1051.24 23.9867 1051.87 22.6133 1053.12 21.6C1054.37 20.56 1055.97 20.04 1057.92 20.04C1060.56 20.04 1062.45 20.8133 1063.6 22.36H1063.68C1063.63 21.4 1063.6 20.9067 1063.6 20.88C1063.6 20.5333 1063.77 20.36 1064.12 20.36H1065.4C1065.75 20.36 1065.92 20.5333 1065.92 20.88V26.44C1065.92 26.7867 1065.75 26.96 1065.4 26.96H1063.84C1063.47 26.96 1063.28 26.7867 1063.28 26.44V25.88C1063.28 25.16 1062.85 24.4533 1062 23.76C1061.17 23.04 1060.09 22.68 1058.76 22.68C1057.43 22.68 1056.39 22.96 1055.64 23.52C1054.89 24.08 1054.52 24.8133 1054.52 25.72C1054.52 26.6 1054.93 27.2933 1055.76 27.8C1056.61 28.28 1057.64 28.6667 1058.84 28.96C1060.04 29.2267 1061.24 29.5333 1062.44 29.88C1063.64 30.2267 1064.65 30.8 1065.48 31.6C1066.33 32.4 1066.76 33.5067 1066.76 34.92C1066.76 36.3333 1066.15 37.5867 1064.92 38.68C1063.72 39.7467 1061.88 40.28 1059.4 40.28ZM1089.61 40H1086.13C1084.99 40 1084.41 39.44 1084.41 38.32V36.28H1084.33C1082.39 38.9733 1079.79 40.32 1076.53 40.32C1074.61 40.32 1073.04 39.8267 1071.81 38.84C1070.59 37.8267 1069.97 36.4667 1069.97 34.76C1069.97 32.5733 1070.92 30.9733 1072.81 29.96C1074.73 28.92 1077.36 28.4 1080.69 28.4H1084.05V27.92C1084.05 24.5867 1082.32 22.92 1078.85 22.92C1077.23 22.92 1076.05 23.08 1075.33 23.4C1074.61 23.6933 1074.09 23.9333 1073.77 24.12C1073.48 24.3067 1073.25 24.4533 1073.09 24.56C1072.69 24.88 1072.4 24.9067 1072.21 24.64L1071.09 23.24C1070.91 23.0267 1070.93 22.8133 1071.17 22.6C1071.63 22.0133 1072.56 21.44 1073.97 20.88C1075.39 20.32 1077.05 20.04 1078.97 20.04C1084.57 20.04 1087.37 22.7067 1087.37 28.04V37.32H1089.61C1089.93 37.32 1090.09 37.48 1090.09 37.8V39.52C1090.09 39.84 1089.93 40 1089.61 40ZM1084.05 30.8H1080.89C1079.35 30.8 1078.07 30.88 1077.05 31.04C1076.04 31.2 1075.17 31.5467 1074.45 32.08C1073.76 32.6133 1073.41 33.3467 1073.41 34.28C1073.41 35.2133 1073.79 35.9867 1074.53 36.6C1075.31 37.1867 1076.31 37.48 1077.53 37.48C1080.12 37.48 1082.29 36.3333 1084.05 34.04V30.8ZM1105.36 37.96C1105.47 38.0667 1105.52 38.1867 1105.52 38.32C1105.52 38.4267 1105.44 38.56 1105.28 38.72C1104.11 39.76 1102.63 40.28 1100.84 40.28C1099.08 40.28 1097.63 39.7067 1096.48 38.56C1095.36 37.3867 1094.8 35.6933 1094.8 33.48V23H1092.56C1092.19 23 1092 22.8267 1092 22.48V20.84C1092 20.4933 1092.19 20.32 1092.56 20.32H1094.8V16.28C1094.8 15.9067 1094.99 15.72 1095.36 15.72H1097.6C1097.95 15.72 1098.12 15.9067 1098.12 16.28V20.32H1103.2C1103.58 20.32 1103.76 20.4933 1103.76 20.84V22.48C1103.76 22.8267 1103.58 23 1103.2 23H1098.12V33.4C1098.12 34.7333 1098.42 35.7467 1099 36.44C1099.62 37.1067 1100.42 37.44 1101.4 37.44C1102.42 37.44 1103.18 37.1867 1103.68 36.68C1103.95 36.44 1104.19 36.4533 1104.4 36.72L1105.36 37.96Z" fill="#425563"/>
<path d="M893.16 40H884.12C883.773 40 883.6 39.84 883.6 39.52V37.8C883.6 37.48 883.773 37.32 884.12 37.32H886.32V23H884.04C883.693 23 883.52 22.84 883.52 22.52V20.8C883.52 20.48 883.693 20.32 884.04 20.32H886.32V17.84C886.32 15.6267 886.88 13.9467 888 12.8C889.147 11.6267 890.733 11.04 892.76 11.04C894.253 11.04 895.6 11.5733 896.8 12.64C896.96 12.7733 897.04 12.9067 897.04 13.04C897.04 13.1467 897 13.24 896.92 13.32L895.96 14.56C895.72 14.8 895.493 14.8267 895.28 14.64C894.64 14.1333 893.84 13.88 892.88 13.88C891.92 13.88 891.133 14.2267 890.52 14.92C889.933 15.5867 889.64 16.5733 889.64 17.88V20.32H894.76C895.107 20.32 895.28 20.48 895.28 20.8V22.52C895.28 22.84 895.107 23 894.76 23H889.64V37.32H893.16C893.48 37.32 893.64 37.48 893.64 37.8V39.52C893.64 39.84 893.48 40 893.16 40ZM906.485 40H898.845C898.498 40 898.325 39.84 898.325 39.52V37.8C898.325 37.48 898.498 37.32 898.845 37.32H901.045V23H898.845C898.498 23 898.325 22.84 898.325 22.52V20.8C898.325 20.48 898.498 20.32 898.845 20.32H903.525C903.871 20.32 904.045 20.48 904.045 20.8V25.8H904.165C904.245 25.3733 904.525 24.7867 905.005 24.04C905.485 23.2933 906.005 22.68 906.565 22.2C907.151 21.6933 907.978 21.24 909.045 20.84C910.138 20.44 911.365 20.24 912.725 20.24C913.071 20.24 913.245 20.4133 913.245 20.76V22.88C913.245 23.2267 913.071 23.4 912.725 23.4H911.885C909.591 23.4 907.765 24.1333 906.405 25.6C905.045 27.0667 904.365 28.7333 904.365 30.6V37.32H906.485C906.831 37.32 907.005 37.48 907.005 37.8V39.52C907.005 39.84 906.831 40 906.485 40ZM923.321 40H915.681C915.334 40 915.161 39.84 915.161 39.52V37.8C915.161 37.48 915.334 37.32 915.681 37.32H917.881V23H915.681C915.334 23 915.161 22.84 915.161 22.52V20.8C915.161 20.48 915.334 20.32 915.681 20.32H920.721C921.041 20.32 921.201 20.48 921.201 20.8V37.32H923.321C923.667 37.32 923.841 37.48 923.841 37.8V39.52C923.841 39.84 923.667 40 923.321 40ZM921.041 14.4C921.494 14.8533 921.721 15.3867 921.721 16C921.721 16.6133 921.494 17.1333 921.041 17.56C920.614 17.9867 920.094 18.2 919.481 18.2C918.867 18.2 918.334 17.9867 917.881 17.56C917.454 17.1333 917.241 16.6133 917.241 16C917.241 15.3867 917.454 14.8533 917.881 14.4C918.334 13.9467 918.867 13.72 919.481 13.72C920.094 13.72 920.614 13.9467 921.041 14.4Z" fill="#425563"/>
<path d="M712.88 37.96C712.987 38.0667 713.04 38.1867 713.04 38.32C713.04 38.4267 712.96 38.56 712.8 38.72C711.627 39.76 710.147 40.28 708.36 40.28C706.6 40.28 705.147 39.7067 704 38.56C702.88 37.3867 702.32 35.6933 702.32 33.48V23H700.08C699.707 23 699.52 22.8267 699.52 22.48V20.84C699.52 20.4933 699.707 20.32 700.08 20.32H702.32V16.28C702.32 15.9067 702.507 15.72 702.88 15.72H705.12C705.467 15.72 705.64 15.9067 705.64 16.28V20.32H710.72C711.093 20.32 711.28 20.4933 711.28 20.84V22.48C711.28 22.8267 711.093 23 710.72 23H705.64V33.4C705.64 34.7333 705.933 35.7467 706.52 36.44C707.133 37.1067 707.933 37.44 708.92 37.44C709.933 37.44 710.693 37.1867 711.2 36.68C711.467 36.44 711.707 36.4533 711.92 36.72L712.88 37.96ZM736.503 40H732.703C731.556 40 730.983 39.44 730.983 38.32V27.8C730.983 26.2533 730.61 25.0533 729.863 24.2C729.116 23.3467 728.023 22.92 726.583 22.92C725.49 22.92 724.65 23.0933 724.063 23.44C723.503 23.76 723.076 24.0533 722.783 24.32C722.49 24.56 722.25 24.8 722.063 25.04C721.743 25.4667 721.476 25.9067 721.263 26.36V37.32H723.383C723.73 37.32 723.903 37.48 723.903 37.8V39.52C723.903 39.84 723.73 40 723.383 40H715.743C715.396 40 715.223 39.84 715.223 39.52V37.8C715.223 37.48 715.396 37.32 715.743 37.32H717.943V13.96H715.743C715.396 13.96 715.223 13.8 715.223 13.48V11.76C715.223 11.44 715.396 11.28 715.743 11.28H720.783C721.103 11.28 721.263 11.44 721.263 11.76V20.68C721.263 21.56 721.21 22.3733 721.103 23.12H721.183C722.49 21.0667 724.57 20.04 727.423 20.04C729.556 20.04 731.223 20.6667 732.423 21.92C733.623 23.1733 734.236 24.8667 734.263 27V37.32H736.503C736.85 37.32 737.023 37.48 737.023 37.8V39.52C737.023 39.84 736.85 40 736.503 40ZM759.538 40H756.058C754.911 40 754.338 39.44 754.338 38.32V36.84H754.218C753.124 39.1333 751.044 40.28 747.978 40.28C745.844 40.28 744.151 39.6533 742.898 38.4C741.671 37.12 741.044 35.4267 741.018 33.32V23H738.738C738.418 23 738.258 22.84 738.258 22.52V20.8C738.258 20.48 738.418 20.32 738.738 20.32H742.578C743.724 20.32 744.298 20.88 744.298 22V32.52C744.298 34.0667 744.671 35.2667 745.418 36.12C746.164 36.9733 747.258 37.4 748.698 37.4C750.644 37.4 752.178 36.68 753.298 35.24C753.778 34.6267 754.018 34.2133 754.018 34V23H751.858C751.538 23 751.378 22.84 751.378 22.52V20.8C751.378 20.48 751.538 20.32 751.858 20.32H756.818C757.138 20.32 757.298 20.48 757.298 20.8V37.32H759.538C759.884 37.32 760.058 37.48 760.058 37.8V39.52C760.058 39.84 759.884 40 759.538 40Z" fill="#425563"/>
<path d="M540.04 40H537.68C537.12 40 536.8 39.72 536.72 39.16L533.32 25.76H533.24L529.84 39.16C529.733 39.72 529.4 40 528.84 40H526.52C526.04 40 525.72 39.72 525.56 39.16L520.28 23H518.04C517.72 23 517.56 22.84 517.56 22.52V20.8C517.56 20.48 517.72 20.32 518.04 20.32H525.52C525.84 20.32 526 20.48 526 20.8V22.52C526 22.84 525.84 23 525.52 23H523.68L527.72 36.48H527.8L531.32 23H529.76C529.44 23 529.28 22.84 529.28 22.52V20.8C529.28 20.48 529.44 20.32 529.76 20.32H536.8C537.12 20.32 537.28 20.48 537.28 20.8V22.52C537.28 22.84 537.12 23 536.8 23H535.24L538.76 36.48H538.84L542.84 23H541.04C540.693 23 540.52 22.84 540.52 22.52V20.8C540.52 20.48 540.693 20.32 541.04 20.32H548.48C548.8 20.32 548.96 20.48 548.96 20.8V22.52C548.96 22.84 548.8 23 548.48 23H546.28L541 39.16C540.787 39.72 540.467 40 540.04 40ZM567.883 30.56H553.483C553.589 32.7733 554.283 34.48 555.563 35.68C556.869 36.88 558.336 37.48 559.963 37.48C561.589 37.48 562.976 37.1333 564.123 36.44C565.296 35.7467 566.083 35.0667 566.483 34.4C566.696 34.1333 566.936 34.0933 567.203 34.28L568.283 35.36C568.443 35.52 568.523 35.6667 568.523 35.8C568.523 35.9067 568.456 36.0533 568.323 36.24C568.216 36.4267 567.976 36.72 567.603 37.12C567.229 37.52 566.696 37.9733 566.003 38.48C565.336 38.9867 564.456 39.4133 563.363 39.76C562.296 40.1067 561.149 40.28 559.923 40.28C557.123 40.28 554.776 39.36 552.883 37.52C551.016 35.68 550.083 33.2133 550.083 30.12C550.083 27 551.016 24.5467 552.883 22.76C554.749 20.9467 557.029 20.04 559.723 20.04C562.443 20.04 564.576 20.92 566.123 22.68C567.669 24.4133 568.443 26.76 568.443 29.72C568.443 29.8267 568.443 29.9333 568.443 30.04C568.443 30.3867 568.256 30.56 567.883 30.56ZM565.123 28.12C565.043 26.4667 564.523 25.1467 563.563 24.16C562.603 23.1733 561.323 22.68 559.723 22.68C558.123 22.68 556.749 23.1333 555.603 24.04C554.456 24.9467 553.776 26.3067 553.562 28.12H565.123ZM592.566 40H589.086C588.473 40 588.019 39.88 587.726 39.64C587.459 39.3733 587.326 38.9333 587.326 38.32V36.08H587.286C586.859 37.2 586.059 38.1867 584.886 39.04C583.713 39.8667 582.286 40.28 580.606 40.28C577.939 40.28 575.766 39.3467 574.086 37.48C572.433 35.6133 571.606 33.1733 571.606 30.16C571.606 27.12 572.433 24.68 574.086 22.84C575.766 20.9733 577.953 20.04 580.646 20.04C582.299 20.04 583.673 20.4267 584.766 21.2C585.859 21.9467 586.646 22.8667 587.126 23.96H587.166C587.139 23.4267 587.126 22.9867 587.126 22.64V13.96H584.886C584.539 13.96 584.366 13.8 584.366 13.48V11.76C584.366 11.44 584.539 11.28 584.886 11.28H589.846C590.166 11.28 590.326 11.44 590.326 11.76V37.32H592.566C592.886 37.32 593.046 37.48 593.046 37.8V39.52C593.046 39.84 592.886 40 592.566 40ZM574.886 30.08C574.886 32.2933 575.459 34.08 576.606 35.44C577.779 36.8 579.259 37.48 581.046 37.48C582.833 37.48 584.299 36.8133 585.446 35.48C586.593 34.12 587.166 32.32 587.166 30.08C587.166 27.84 586.579 26.08 585.406 24.8C584.233 23.4933 582.779 22.84 581.046 22.84C579.313 22.84 577.846 23.4933 576.646 24.8C575.473 26.1067 574.886 27.8667 574.886 30.08Z" fill="#425563"/>
<path d="M366.88 37.96C366.987 38.0667 367.04 38.1867 367.04 38.32C367.04 38.4267 366.96 38.56 366.8 38.72C365.627 39.76 364.147 40.28 362.36 40.28C360.6 40.28 359.147 39.7067 358 38.56C356.88 37.3867 356.32 35.6933 356.32 33.48V23H354.08C353.707 23 353.52 22.8267 353.52 22.48V20.84C353.52 20.4933 353.707 20.32 354.08 20.32H356.32V16.28C356.32 15.9067 356.507 15.72 356.88 15.72H359.12C359.467 15.72 359.64 15.9067 359.64 16.28V20.32H364.72C365.093 20.32 365.28 20.4933 365.28 20.84V22.48C365.28 22.8267 365.093 23 364.72 23H359.64V33.4C359.64 34.7333 359.933 35.7467 360.52 36.44C361.133 37.1067 361.933 37.44 362.92 37.44C363.933 37.44 364.693 37.1867 365.2 36.68C365.467 36.44 365.707 36.4533 365.92 36.72L366.88 37.96ZM389.397 40H385.917C384.771 40 384.197 39.44 384.197 38.32V36.84H384.077C382.984 39.1333 380.904 40.28 377.837 40.28C375.704 40.28 374.011 39.6533 372.757 38.4C371.531 37.12 370.904 35.4267 370.877 33.32V23H368.597C368.277 23 368.117 22.84 368.117 22.52V20.8C368.117 20.48 368.277 20.32 368.597 20.32H372.437C373.584 20.32 374.157 20.88 374.157 22V32.52C374.157 34.0667 374.531 35.2667 375.277 36.12C376.024 36.9733 377.117 37.4 378.557 37.4C380.504 37.4 382.037 36.68 383.157 35.24C383.637 34.6267 383.877 34.2133 383.877 34V23H381.717C381.397 23 381.237 22.84 381.237 22.52V20.8C381.237 20.48 381.397 20.32 381.717 20.32H386.677C386.997 20.32 387.157 20.48 387.157 20.8V37.32H389.397C389.744 37.32 389.917 37.48 389.917 37.8V39.52C389.917 39.84 389.744 40 389.397 40ZM410.109 30.56H395.709C395.816 32.7733 396.509 34.48 397.789 35.68C399.096 36.88 400.562 37.48 402.189 37.48C403.816 37.48 405.202 37.1333 406.349 36.44C407.522 35.7467 408.309 35.0667 408.709 34.4C408.922 34.1333 409.162 34.0933 409.429 34.28L410.509 35.36C410.669 35.52 410.749 35.6667 410.749 35.8C410.749 35.9067 410.682 36.0533 410.549 36.24C410.442 36.4267 410.202 36.72 409.829 37.12C409.456 37.52 408.922 37.9733 408.229 38.48C407.562 38.9867 406.682 39.4133 405.589 39.76C404.522 40.1067 403.376 40.28 402.149 40.28C399.349 40.28 397.002 39.36 395.109 37.52C393.242 35.68 392.309 33.2133 392.309 30.12C392.309 27 393.242 24.5467 395.109 22.76C396.976 20.9467 399.256 20.04 401.949 20.04C404.669 20.04 406.802 20.92 408.349 22.68C409.896 24.4133 410.669 26.76 410.669 29.72C410.669 29.8267 410.669 29.9333 410.669 30.04C410.669 30.3867 410.482 30.56 410.109 30.56ZM407.349 28.12C407.269 26.4667 406.749 25.1467 405.789 24.16C404.829 23.1733 403.549 22.68 401.949 22.68C400.349 22.68 398.976 23.1333 397.829 24.04C396.682 24.9467 396.002 26.3067 395.789 28.12H407.349Z" fill="#425563"/>
<path d="M10.4 40.28C8.61333 40.28 7.18667 39.9467 6.12 39.28C5.05333 38.6133 4.38667 37.9867 4.12 37.4H4.04C4.09333 38.7067 4.12 39.4 4.12 39.48C4.12 39.8267 3.93333 40 3.56 40H2.2C1.85333 40 1.68 39.8267 1.68 39.48V33.48C1.68 33.1333 1.85333 32.96 2.2 32.96H3.76C4.13333 32.96 4.32 33.1333 4.32 33.48V34.28C4.58667 35.08 5.14667 35.8133 6 36.48C7.01333 37.28 8.28 37.68 9.8 37.68C12.7867 37.68 14.28 36.64 14.28 34.56C14.28 33.84 13.8667 33.2667 13.04 32.84C12.2133 32.3867 11.2 32.0133 10 31.72C8.82667 31.4267 7.65333 31.0933 6.48 30.72C5.30667 30.3467 4.30667 29.7467 3.48 28.92C2.65333 28.0667 2.24 27 2.24 25.72C2.24 23.9867 2.86667 22.6133 4.12 21.6C5.37333 20.56 6.97333 20.04 8.92 20.04C11.56 20.04 13.4533 20.8133 14.6 22.36H14.68C14.6267 21.4 14.6 20.9067 14.6 20.88C14.6 20.5333 14.7733 20.36 15.12 20.36H16.4C16.7467 20.36 16.92 20.5333 16.92 20.88V26.44C16.92 26.7867 16.7467 26.96 16.4 26.96H14.84C14.4667 26.96 14.28 26.7867 14.28 26.44V25.88C14.28 25.16 13.8533 24.4533 13 23.76C12.1733 23.04 11.0933 22.68 9.76 22.68C8.42667 22.68 7.38667 22.96 6.64 23.52C5.89333 24.08 5.52 24.8133 5.52 25.72C5.52 26.6 5.93333 27.2933 6.76 27.8C7.61333 28.28 8.64 28.6667 9.84 28.96C11.04 29.2267 12.24 29.5333 13.44 29.88C14.64 30.2267 15.6533 30.8 16.48 31.6C17.3333 32.4 17.76 33.5067 17.76 34.92C17.76 36.3333 17.1467 37.5867 15.92 38.68C14.72 39.7467 12.88 40.28 10.4 40.28ZM41.4988 40H38.0188C36.8721 40 36.2988 39.44 36.2988 38.32V36.84H36.1788C35.0854 39.1333 33.0054 40.28 29.9388 40.28C27.8054 40.28 26.1121 39.6533 24.8588 38.4C23.6321 37.12 23.0054 35.4267 22.9788 33.32V23H20.6988C20.3788 23 20.2188 22.84 20.2188 22.52V20.8C20.2188 20.48 20.3788 20.32 20.6988 20.32H24.5388C25.6854 20.32 26.2588 20.88 26.2588 22V32.52C26.2588 34.0667 26.6321 35.2667 27.3788 36.12C28.1254 36.9733 29.2188 37.4 30.6588 37.4C32.6054 37.4 34.1388 36.68 35.2588 35.24C35.7388 34.6267 35.9788 34.2133 35.9788 34V23H33.8188C33.4988 23 33.3388 22.84 33.3388 22.52V20.8C33.3388 20.48 33.4988 20.32 33.8188 20.32H38.7788C39.0988 20.32 39.2588 20.48 39.2588 20.8V37.32H41.4988C41.8454 37.32 42.0188 37.48 42.0188 37.8V39.52C42.0188 39.84 41.8454 40 41.4988 40ZM66.2375 40H62.4375C61.2908 40 60.7175 39.44 60.7175 38.32V27.8C60.7175 26.2533 60.3442 25.0533 59.5975 24.2C58.8508 23.3467 57.7575 22.92 56.3175 22.92C54.2642 22.92 52.6642 23.76 51.5175 25.44C51.3842 25.6 51.2108 25.8933 50.9975 26.32V37.32H53.1175C53.4642 37.32 53.6375 37.48 53.6375 37.8V39.52C53.6375 39.84 53.4642 40 53.1175 40H45.4775C45.1308 40 44.9575 39.84 44.9575 39.52V37.8C44.9575 37.48 45.1308 37.32 45.4775 37.32H47.6775V23H45.4775C45.1308 23 44.9575 22.84 44.9575 22.52V20.8C44.9575 20.48 45.1308 20.32 45.4775 20.32H50.1575C50.5042 20.32 50.6775 20.48 50.6775 20.8L50.5975 23.52H50.7175C52.1042 21.2 54.2508 20.04 57.1575 20.04C59.2908 20.04 60.9575 20.6667 62.1575 21.92C63.3575 23.1733 63.9708 24.8667 63.9975 27V37.32H66.2375C66.5842 37.32 66.7575 37.48 66.7575 37.8V39.52C66.7575 39.84 66.5842 40 66.2375 40Z" fill="#425563"/>
</svg>
