<svg width="171" height="63" viewBox="0 0 171 63" fill="none" xmlns="http://www.w3.org/2000/svg">
<rect width="161" height="53" rx="7" fill="#F3AE9E"/>
<rect x="11.5" y="11.5" width="158" height="50" rx="5.5" stroke="#EA7C68" stroke-width="3"/>
<path d="M52.3939 34.504H39.4339C39.5299 36.496 40.1539 38.032 41.3059 39.112C42.4819 40.192 43.8019 40.732 45.2659 40.732C46.7299 40.732 47.9779 40.42 49.0099 39.796C50.0659 39.172 50.7739 38.56 51.1339 37.96C51.3259 37.72 51.5419 37.684 51.7819 37.852L52.7539 38.824C52.8979 38.968 52.9699 39.1 52.9699 39.22C52.9699 39.316 52.9099 39.448 52.7899 39.616C52.6939 39.784 52.4779 40.048 52.1419 40.408C51.8059 40.768 51.3259 41.176 50.7019 41.632C50.1019 42.088 49.3099 42.472 48.3259 42.784C47.3659 43.096 46.3339 43.252 45.2299 43.252C42.7099 43.252 40.5979 42.424 38.8939 40.768C37.2139 39.112 36.3739 36.892 36.3739 34.108C36.3739 31.3 37.2139 29.092 38.8939 27.484C40.5739 25.852 42.6259 25.036 45.0499 25.036C47.4979 25.036 49.4179 25.828 50.8099 27.412C52.2019 28.972 52.8979 31.084 52.8979 33.748C52.8979 33.844 52.8979 33.94 52.8979 34.036C52.8979 34.348 52.7299 34.504 52.3939 34.504ZM49.9099 32.308C49.8379 30.82 49.3699 29.632 48.5059 28.744C47.6419 27.856 46.4899 27.412 45.0499 27.412C43.6099 27.412 42.3739 27.82 41.3419 28.636C40.3099 29.452 39.6979 30.676 39.5059 32.308H49.9099ZM65.6559 43H63.2439C63.0039 43 62.8359 42.964 62.7399 42.892C62.6439 42.796 62.5479 42.616 62.4519 42.352L56.7279 27.7H54.7119C54.4239 27.7 54.2799 27.556 54.2799 27.268V25.72C54.2799 25.432 54.4239 25.288 54.7119 25.288H61.4079C61.6959 25.288 61.8399 25.432 61.8399 25.72V27.268C61.8399 27.556 61.6959 27.7 61.4079 27.7H59.8239L64.4319 39.832H64.5039L69.1839 27.7H67.5639C67.2759 27.7 67.1319 27.556 67.1319 27.268V25.72C67.1319 25.432 67.2759 25.288 67.5639 25.288H74.2599C74.5719 25.288 74.7279 25.432 74.7279 25.72V27.268C74.7279 27.556 74.5719 27.7 74.2599 27.7H72.2799L66.4839 42.352C66.3399 42.784 66.0639 43 65.6559 43ZM91.6634 34.504H78.7034C78.7994 36.496 79.4234 38.032 80.5754 39.112C81.7514 40.192 83.0714 40.732 84.5354 40.732C85.9994 40.732 87.2474 40.42 88.2794 39.796C89.3354 39.172 90.0434 38.56 90.4034 37.96C90.5954 37.72 90.8114 37.684 91.0514 37.852L92.0234 38.824C92.1674 38.968 92.2394 39.1 92.2394 39.22C92.2394 39.316 92.1794 39.448 92.0594 39.616C91.9634 39.784 91.7474 40.048 91.4114 40.408C91.0754 40.768 90.5954 41.176 89.9714 41.632C89.3714 42.088 88.5794 42.472 87.5954 42.784C86.6354 43.096 85.6034 43.252 84.4994 43.252C81.9794 43.252 79.8674 42.424 78.1634 40.768C76.4834 39.112 75.6434 36.892 75.6434 34.108C75.6434 31.3 76.4834 29.092 78.1634 27.484C79.8434 25.852 81.8954 25.036 84.3194 25.036C86.7674 25.036 88.6874 25.828 90.0794 27.412C91.4714 28.972 92.1674 31.084 92.1674 33.748C92.1674 33.844 92.1674 33.94 92.1674 34.036C92.1674 34.348 91.9994 34.504 91.6634 34.504ZM89.1794 32.308C89.1074 30.82 88.6394 29.632 87.7754 28.744C86.9114 27.856 85.7594 27.412 84.3194 27.412C82.8794 27.412 81.6434 27.82 80.6114 28.636C79.5794 29.452 78.9674 30.676 78.7754 32.308H89.1794ZM114.166 43H110.746C109.714 43 109.198 42.496 109.198 41.488V32.02C109.198 30.628 108.862 29.548 108.19 28.78C107.518 28.012 106.534 27.628 105.238 27.628C103.39 27.628 101.95 28.384 100.918 29.896C100.798 30.04 100.642 30.304 100.45 30.688V40.588H102.358C102.67 40.588 102.826 40.732 102.826 41.02V42.568C102.826 42.856 102.67 43 102.358 43H95.4825C95.1705 43 95.0145 42.856 95.0145 42.568V41.02C95.0145 40.732 95.1705 40.588 95.4825 40.588H97.4625V27.7H95.4825C95.1705 27.7 95.0145 27.556 95.0145 27.268V25.72C95.0145 25.432 95.1705 25.288 95.4825 25.288H99.6945C100.006 25.288 100.162 25.432 100.162 25.72L100.09 28.168H100.198C101.446 26.08 103.378 25.036 105.994 25.036C107.914 25.036 109.414 25.6 110.494 26.728C111.574 27.856 112.126 29.38 112.15 31.3V40.588H114.166C114.478 40.588 114.634 40.732 114.634 41.02V42.568C114.634 42.856 114.478 43 114.166 43ZM127.71 41.164C127.806 41.26 127.854 41.368 127.854 41.488C127.854 41.584 127.782 41.704 127.638 41.848C126.582 42.784 125.25 43.252 123.642 43.252C122.058 43.252 120.75 42.736 119.718 41.704C118.71 40.648 118.206 39.124 118.206 37.132V27.7H116.19C115.854 27.7 115.686 27.544 115.686 27.232V25.756C115.686 25.444 115.854 25.288 116.19 25.288H118.206V21.652C118.206 21.316 118.374 21.148 118.71 21.148H120.726C121.038 21.148 121.194 21.316 121.194 21.652V25.288H125.766C126.102 25.288 126.27 25.444 126.27 25.756V27.232C126.27 27.544 126.102 27.7 125.766 27.7H121.194V37.06C121.194 38.26 121.458 39.172 121.986 39.796C122.538 40.396 123.258 40.696 124.146 40.696C125.058 40.696 125.742 40.468 126.198 40.012C126.438 39.796 126.654 39.808 126.846 40.048L127.71 41.164ZM137.846 43.252C136.238 43.252 134.954 42.952 133.994 42.352C133.034 41.752 132.434 41.188 132.194 40.66H132.122C132.17 41.836 132.194 42.46 132.194 42.532C132.194 42.844 132.026 43 131.69 43H130.466C130.154 43 129.998 42.844 129.998 42.532V37.132C129.998 36.82 130.154 36.664 130.466 36.664H131.87C132.206 36.664 132.374 36.82 132.374 37.132V37.852C132.614 38.572 133.118 39.232 133.886 39.832C134.798 40.552 135.938 40.912 137.306 40.912C139.994 40.912 141.338 39.976 141.338 38.104C141.338 37.456 140.966 36.94 140.222 36.556C139.478 36.148 138.566 35.812 137.486 35.548C136.43 35.284 135.374 34.984 134.318 34.648C133.262 34.312 132.362 33.772 131.618 33.028C130.874 32.26 130.502 31.3 130.502 30.148C130.502 28.588 131.066 27.352 132.194 26.44C133.322 25.504 134.762 25.036 136.514 25.036C138.89 25.036 140.594 25.732 141.626 27.124H141.698C141.65 26.26 141.626 25.816 141.626 25.792C141.626 25.48 141.782 25.324 142.094 25.324H143.246C143.558 25.324 143.714 25.48 143.714 25.792V30.796C143.714 31.108 143.558 31.264 143.246 31.264H141.842C141.506 31.264 141.338 31.108 141.338 30.796V30.292C141.338 29.644 140.954 29.008 140.186 28.384C139.442 27.736 138.47 27.412 137.27 27.412C136.07 27.412 135.134 27.664 134.462 28.168C133.79 28.672 133.454 29.332 133.454 30.148C133.454 30.94 133.826 31.564 134.57 32.02C135.338 32.452 136.262 32.8 137.342 33.064C138.422 33.304 139.502 33.58 140.582 33.892C141.662 34.204 142.574 34.72 143.318 35.44C144.086 36.16 144.47 37.156 144.47 38.428C144.47 39.7 143.918 40.828 142.814 41.812C141.734 42.772 140.078 43.252 137.846 43.252Z" fill="#425563"/>
</svg>
