<svg width="314" height="66" viewBox="0 0 314 66" fill="none" xmlns="http://www.w3.org/2000/svg">
<rect width="308" height="61" rx="5" fill="#F3AE9E"/>
<path d="M113.299 40.21C111.959 40.21 110.889 39.96 110.089 39.46C109.289 38.96 108.789 38.49 108.589 38.05H108.529C108.569 39.03 108.589 39.55 108.589 39.61C108.589 39.87 108.449 40 108.169 40H107.149C106.889 40 106.759 39.87 106.759 39.61V35.11C106.759 34.85 106.889 34.72 107.149 34.72H108.319C108.599 34.72 108.739 34.85 108.739 35.11V35.71C108.939 36.31 109.359 36.86 109.999 37.36C110.759 37.96 111.709 38.26 112.849 38.26C115.089 38.26 116.209 37.48 116.209 35.92C116.209 35.38 115.899 34.95 115.279 34.63C114.659 34.29 113.899 34.01 112.999 33.79C112.119 33.57 111.239 33.32 110.359 33.04C109.479 32.76 108.729 32.31 108.109 31.69C107.489 31.05 107.179 30.25 107.179 29.29C107.179 27.99 107.649 26.96 108.589 26.2C109.529 25.42 110.729 25.03 112.189 25.03C114.169 25.03 115.589 25.61 116.449 26.77H116.509C116.469 26.05 116.449 25.68 116.449 25.66C116.449 25.4 116.579 25.27 116.839 25.27H117.799C118.059 25.27 118.189 25.4 118.189 25.66V29.83C118.189 30.09 118.059 30.22 117.799 30.22H116.629C116.349 30.22 116.209 30.09 116.209 29.83V29.41C116.209 28.87 115.889 28.34 115.249 27.82C114.629 27.28 113.819 27.01 112.819 27.01C111.819 27.01 111.039 27.22 110.479 27.64C109.919 28.06 109.639 28.61 109.639 29.29C109.639 29.95 109.949 30.47 110.569 30.85C111.209 31.21 111.979 31.5 112.879 31.72C113.779 31.92 114.679 32.15 115.579 32.41C116.479 32.67 117.239 33.1 117.859 33.7C118.499 34.3 118.819 35.13 118.819 36.19C118.819 37.25 118.359 38.19 117.439 39.01C116.539 39.81 115.159 40.21 113.299 40.21ZM127.466 40H121.736C121.476 40 121.346 39.88 121.346 39.64V38.35C121.346 38.11 121.476 37.99 121.736 37.99H123.386V27.25H121.736C121.476 27.25 121.346 27.13 121.346 26.89V25.6C121.346 25.36 121.476 25.24 121.736 25.24H125.516C125.756 25.24 125.876 25.36 125.876 25.6V37.99H127.466C127.726 37.99 127.856 38.11 127.856 38.35V39.64C127.856 39.88 127.726 40 127.466 40ZM125.756 20.8C126.096 21.14 126.266 21.54 126.266 22C126.266 22.46 126.096 22.85 125.756 23.17C125.436 23.49 125.046 23.65 124.586 23.65C124.126 23.65 123.726 23.49 123.386 23.17C123.066 22.85 122.906 22.46 122.906 22C122.906 21.54 123.066 21.14 123.386 20.8C123.726 20.46 124.126 20.29 124.586 20.29C125.046 20.29 125.436 20.46 125.756 20.8ZM136.742 47.02C135.742 47.02 134.982 46.95 134.462 46.81C133.962 46.67 133.552 46.54 133.232 46.42C132.932 46.32 132.672 46.21 132.452 46.09C132.232 45.99 132.022 45.88 131.822 45.76C130.942 45.18 130.612 44.76 130.832 44.5L131.612 43.39C131.732 43.21 131.902 43.2 132.122 43.36C132.142 43.36 132.202 43.4 132.302 43.48C132.422 43.58 132.532 43.67 132.632 43.75C132.752 43.83 132.902 43.92 133.082 44.02C133.282 44.14 133.502 44.24 133.742 44.32C133.982 44.42 134.242 44.51 134.522 44.59C135.182 44.77 135.912 44.86 136.712 44.86C138.152 44.86 139.302 44.51 140.162 43.81C141.042 43.13 141.482 42.05 141.482 40.57V37.15C141.122 37.99 140.522 38.71 139.682 39.31C138.862 39.91 137.832 40.21 136.592 40.21C134.552 40.21 132.912 39.5 131.672 38.08C130.452 36.66 129.842 34.82 129.842 32.56C129.842 30.3 130.462 28.48 131.702 27.1C132.962 25.72 134.592 25.03 136.592 25.03C137.832 25.03 138.872 25.32 139.712 25.9C140.572 26.46 141.192 27.15 141.572 27.97H141.632L141.602 25.6C141.602 25.36 141.722 25.24 141.962 25.24H145.502C145.742 25.24 145.862 25.36 145.862 25.6V26.89C145.862 27.13 145.742 27.25 145.502 27.25H143.882V40.57C143.882 42.71 143.222 44.32 141.902 45.4C140.602 46.48 138.882 47.02 136.742 47.02ZM132.302 32.62C132.302 34.26 132.742 35.59 133.622 36.61C134.502 37.61 135.602 38.11 136.922 38.11C138.242 38.11 139.332 37.61 140.192 36.61C141.072 35.61 141.512 34.27 141.512 32.59C141.512 30.91 141.072 29.58 140.192 28.6C139.332 27.62 138.242 27.13 136.922 27.13C135.602 27.13 134.502 27.63 133.622 28.63C132.742 29.63 132.302 30.96 132.302 32.62ZM164.142 40H161.292C160.432 40 160.002 39.58 160.002 38.74V30.85C160.002 29.69 159.722 28.79 159.162 28.15C158.602 27.51 157.782 27.19 156.702 27.19C155.162 27.19 153.962 27.82 153.102 29.08C153.002 29.2 152.872 29.42 152.712 29.74V37.99H154.302C154.562 37.99 154.692 38.11 154.692 38.35V39.64C154.692 39.88 154.562 40 154.302 40H148.572C148.312 40 148.182 39.88 148.182 39.64V38.35C148.182 38.11 148.312 37.99 148.572 37.99H150.222V27.25H148.572C148.312 27.25 148.182 27.13 148.182 26.89V25.6C148.182 25.36 148.312 25.24 148.572 25.24H152.082C152.342 25.24 152.472 25.36 152.472 25.6L152.412 27.64H152.502C153.542 25.9 155.152 25.03 157.332 25.03C158.932 25.03 160.182 25.5 161.082 26.44C161.982 27.38 162.442 28.65 162.462 30.25V37.99H164.142C164.402 37.99 164.532 38.11 164.532 38.35V39.64C164.532 39.88 164.402 40 164.142 40ZM182.339 40H176.609C176.349 40 176.219 39.88 176.219 39.64V38.35C176.219 38.11 176.349 37.99 176.609 37.99H178.259V27.25H176.609C176.349 27.25 176.219 27.13 176.219 26.89V25.6C176.219 25.36 176.349 25.24 176.609 25.24H180.389C180.629 25.24 180.749 25.36 180.749 25.6V37.99H182.339C182.599 37.99 182.729 38.11 182.729 38.35V39.64C182.729 39.88 182.599 40 182.339 40ZM180.629 20.8C180.969 21.14 181.139 21.54 181.139 22C181.139 22.46 180.969 22.85 180.629 23.17C180.309 23.49 179.919 23.65 179.459 23.65C178.999 23.65 178.599 23.49 178.259 23.17C177.939 22.85 177.779 22.46 177.779 22C177.779 21.54 177.939 21.14 178.259 20.8C178.599 20.46 178.999 20.29 179.459 20.29C179.919 20.29 180.309 20.46 180.629 20.8ZM200.968 40H198.118C197.258 40 196.828 39.58 196.828 38.74V30.85C196.828 29.69 196.548 28.79 195.988 28.15C195.428 27.51 194.608 27.19 193.528 27.19C191.988 27.19 190.788 27.82 189.928 29.08C189.828 29.2 189.698 29.42 189.538 29.74V37.99H191.128C191.388 37.99 191.518 38.11 191.518 38.35V39.64C191.518 39.88 191.388 40 191.128 40H185.398C185.138 40 185.008 39.88 185.008 39.64V38.35C185.008 38.11 185.138 37.99 185.398 37.99H187.048V27.25H185.398C185.138 27.25 185.008 27.13 185.008 26.89V25.6C185.008 25.36 185.138 25.24 185.398 25.24H188.908C189.168 25.24 189.298 25.36 189.298 25.6L189.238 27.64H189.328C190.368 25.9 191.978 25.03 194.158 25.03C195.758 25.03 197.008 25.5 197.908 26.44C198.808 27.38 199.268 28.65 199.288 30.25V37.99H200.968C201.228 37.99 201.358 38.11 201.358 38.35V39.64C201.358 39.88 201.228 40 200.968 40Z" fill="#425563"/>
<rect x="7.5" y="6.5" width="305" height="58" rx="3.5" stroke="#425563" stroke-width="3"/>
</svg>
