<svg width="171" height="63" viewBox="0 0 171 63" fill="none" xmlns="http://www.w3.org/2000/svg">
<rect width="161" height="53" rx="7" fill="#FFC56E"/>
<rect x="11.5" y="11.5" width="158" height="50" rx="5.5" stroke="#F79D1E" stroke-width="3"/>
<path d="M48.7768 41.164C48.8728 41.26 48.9208 41.368 48.9208 41.488C48.9208 41.584 48.8488 41.704 48.7048 41.848C47.6488 42.784 46.3168 43.252 44.7088 43.252C43.1248 43.252 41.8168 42.736 40.7848 41.704C39.7768 40.648 39.2728 39.124 39.2728 37.132V27.7H37.2568C36.9208 27.7 36.7528 27.544 36.7528 27.232V25.756C36.7528 25.444 36.9208 25.288 37.2568 25.288H39.2728V21.652C39.2728 21.316 39.4408 21.148 39.7768 21.148H41.7928C42.1048 21.148 42.2608 21.316 42.2608 21.652V25.288H46.8328C47.1688 25.288 47.3368 25.444 47.3368 25.756V27.232C47.3368 27.544 47.1688 27.7 46.8328 27.7H42.2608V37.06C42.2608 38.26 42.5248 39.172 43.0528 39.796C43.6048 40.396 44.3248 40.696 45.2128 40.696C46.1248 40.696 46.8088 40.468 47.2648 40.012C47.5048 39.796 47.7208 39.808 47.9128 40.048L48.7768 41.164ZM68.7725 43H65.6405C64.6085 43 64.0925 42.496 64.0925 41.488V39.652H64.0205C62.2685 42.076 59.9285 43.288 57.0005 43.288C55.2725 43.288 53.8565 42.844 52.7525 41.956C51.6485 41.044 51.0965 39.82 51.0965 38.284C51.0965 36.316 51.9485 34.876 53.6525 33.964C55.3805 33.028 57.7445 32.56 60.7445 32.56H63.7685V32.128C63.7685 29.128 62.2085 27.628 59.0885 27.628C57.6245 27.628 56.5685 27.772 55.9205 28.06C55.2725 28.324 54.8045 28.54 54.5165 28.708C54.2525 28.876 54.0485 29.008 53.9045 29.104C53.5445 29.392 53.2805 29.416 53.1125 29.176L52.1045 27.916C51.9365 27.724 51.9605 27.532 52.1765 27.34C52.5845 26.812 53.4245 26.296 54.6965 25.792C55.9685 25.288 57.4685 25.036 59.1965 25.036C64.2365 25.036 66.7565 27.436 66.7565 32.236V40.588H68.7725C69.0605 40.588 69.2045 40.732 69.2045 41.02V42.568C69.2045 42.856 69.0605 43 68.7725 43ZM63.7685 34.72H60.9245C59.5325 34.72 58.3805 34.792 57.4685 34.936C56.5565 35.08 55.7765 35.392 55.1285 35.872C54.5045 36.352 54.1925 37.012 54.1925 37.852C54.1925 38.692 54.5285 39.388 55.2005 39.94C55.8965 40.468 56.7965 40.732 57.9005 40.732C60.2285 40.732 62.1845 39.7 63.7685 37.636V34.72ZM79.8659 43.252C78.2579 43.252 76.9739 42.952 76.0139 42.352C75.0539 41.752 74.4539 41.188 74.2139 40.66H74.1419C74.1899 41.836 74.2139 42.46 74.2139 42.532C74.2139 42.844 74.0459 43 73.7099 43H72.4859C72.1739 43 72.0179 42.844 72.0179 42.532V37.132C72.0179 36.82 72.1739 36.664 72.4859 36.664H73.8899C74.2259 36.664 74.3939 36.82 74.3939 37.132V37.852C74.6339 38.572 75.1379 39.232 75.9059 39.832C76.8179 40.552 77.9579 40.912 79.3259 40.912C82.0139 40.912 83.3579 39.976 83.3579 38.104C83.3579 37.456 82.9859 36.94 82.2419 36.556C81.4979 36.148 80.5859 35.812 79.5059 35.548C78.4499 35.284 77.3939 34.984 76.3379 34.648C75.2819 34.312 74.3819 33.772 73.6379 33.028C72.8939 32.26 72.5219 31.3 72.5219 30.148C72.5219 28.588 73.0859 27.352 74.2139 26.44C75.3419 25.504 76.7819 25.036 78.5339 25.036C80.9099 25.036 82.6139 25.732 83.6459 27.124H83.7179C83.6699 26.26 83.6459 25.816 83.6459 25.792C83.6459 25.48 83.8019 25.324 84.1139 25.324H85.2659C85.5779 25.324 85.7339 25.48 85.7339 25.792V30.796C85.7339 31.108 85.5779 31.264 85.2659 31.264H83.8619C83.5259 31.264 83.3579 31.108 83.3579 30.796V30.292C83.3579 29.644 82.9739 29.008 82.2059 28.384C81.4619 27.736 80.4899 27.412 79.2899 27.412C78.0899 27.412 77.1539 27.664 76.4819 28.168C75.8099 28.672 75.4739 29.332 75.4739 30.148C75.4739 30.94 75.8459 31.564 76.5899 32.02C77.3579 32.452 78.2819 32.8 79.3619 33.064C80.4419 33.304 81.5219 33.58 82.6019 33.892C83.6819 34.204 84.5939 34.72 85.3379 35.44C86.1059 36.16 86.4899 37.156 86.4899 38.428C86.4899 39.7 85.9379 40.828 84.8339 41.812C83.7539 42.772 82.0979 43.252 79.8659 43.252ZM108.041 43H106.097C105.353 43 104.717 42.628 104.189 41.884L97.8175 33.244L94.3255 36.484V40.588H96.2335C96.5455 40.588 96.7015 40.732 96.7015 41.02V42.568C96.7015 42.856 96.5455 43 96.2335 43H89.3575C89.0455 43 88.8895 42.856 88.8895 42.568V41.02C88.8895 40.732 89.0455 40.588 89.3575 40.588H91.3375V19.564H89.3575C89.0455 19.564 88.8895 19.42 88.8895 19.132V17.584C88.8895 17.296 89.0455 17.152 89.3575 17.152H93.8935C94.1815 17.152 94.3255 17.296 94.3255 17.584V33.712L100.877 27.7H99.5815C99.2935 27.7 99.1495 27.556 99.1495 27.268V25.72C99.1495 25.432 99.2935 25.288 99.5815 25.288H106.493C106.781 25.288 106.925 25.432 106.925 25.72V27.268C106.925 27.556 106.781 27.7 106.493 27.7H104.153L99.7615 31.552L106.493 40.588H108.041C108.329 40.588 108.473 40.732 108.473 41.02V42.568C108.473 42.856 108.329 43 108.041 43ZM118.467 43.252C116.859 43.252 115.575 42.952 114.615 42.352C113.655 41.752 113.055 41.188 112.815 40.66H112.743C112.791 41.836 112.815 42.46 112.815 42.532C112.815 42.844 112.647 43 112.311 43H111.087C110.775 43 110.619 42.844 110.619 42.532V37.132C110.619 36.82 110.775 36.664 111.087 36.664H112.491C112.827 36.664 112.995 36.82 112.995 37.132V37.852C113.235 38.572 113.739 39.232 114.507 39.832C115.419 40.552 116.559 40.912 117.927 40.912C120.615 40.912 121.959 39.976 121.959 38.104C121.959 37.456 121.587 36.94 120.843 36.556C120.099 36.148 119.187 35.812 118.107 35.548C117.051 35.284 115.995 34.984 114.939 34.648C113.883 34.312 112.983 33.772 112.239 33.028C111.495 32.26 111.123 31.3 111.123 30.148C111.123 28.588 111.687 27.352 112.815 26.44C113.943 25.504 115.383 25.036 117.135 25.036C119.511 25.036 121.215 25.732 122.247 27.124H122.319C122.271 26.26 122.247 25.816 122.247 25.792C122.247 25.48 122.403 25.324 122.715 25.324H123.867C124.179 25.324 124.335 25.48 124.335 25.792V30.796C124.335 31.108 124.179 31.264 123.867 31.264H122.463C122.127 31.264 121.959 31.108 121.959 30.796V30.292C121.959 29.644 121.575 29.008 120.807 28.384C120.063 27.736 119.091 27.412 117.891 27.412C116.691 27.412 115.755 27.664 115.083 28.168C114.411 28.672 114.075 29.332 114.075 30.148C114.075 30.94 114.447 31.564 115.191 32.02C115.959 32.452 116.883 32.8 117.963 33.064C119.043 33.304 120.123 33.58 121.203 33.892C122.283 34.204 123.195 34.72 123.939 35.44C124.707 36.16 125.091 37.156 125.091 38.428C125.091 39.7 124.539 40.828 123.435 41.812C122.355 42.772 120.699 43.252 118.467 43.252Z" fill="#425563"/>
</svg>
